<svg width="500" height="500" viewBox="0 0 500 500" fill="none" xmlns="http://www.w3.org/2000/svg">
<path d="M373.557 0H126.442C56.6098 0 0 56.6101 0 126.442V373.558C0 443.39 56.6098 500 126.442 500H373.557C443.39 500 500 443.39 500 373.558V126.442C500 56.6101 443.39 0 373.557 0Z" fill="url(#paint0_linear_66_26)"/>
<g filter="url(#filter0_d_66_26)">
<path d="M401.153 257.404C398.173 259.134 395.288 260.769 393.076 262.019C388.653 252.404 382.884 244.423 372.115 242.308C361.346 240.192 352.5 243.942 345.481 252.404C343.365 250.577 342.884 250 340.192 247.981C325.672 237.211 305.384 245.481 301.442 263.173C300.769 266.346 299.519 266.827 296.922 266.923C285.384 267.115 274.904 275.481 272.692 286.731C272.019 290.288 270.673 291.634 267.211 291.827C259.711 292.308 253.942 296.154 249.327 301.923C248.173 303.365 246.827 304.711 245.192 305.577C230.385 314.231 215.384 322.884 200.48 331.442C197.019 333.461 193.653 335.577 188.365 332.692C184.711 330.769 182.404 327.115 182.596 322.981C182.788 318.654 185.48 316.058 189.038 314.038C204.904 304.904 220.769 295.673 236.634 286.442C237.884 285.673 239.231 285 240.288 284.038C243.077 281.538 243.461 277.884 241.634 274.711C239.903 271.731 236.635 270.288 233.173 271.25C231.635 271.634 230.288 272.5 228.846 273.269C209.423 284.423 190.096 295.577 170.769 306.827C167.019 309.038 163.173 309.808 158.749 307.211C156.249 305.769 154.615 303.269 154.134 300.384C153.269 295.192 155.576 291.538 159.903 289.038C178.365 278.365 196.731 267.692 215.096 257.019C216.25 256.346 217.5 255.577 218.365 254.808C224.711 249.038 217.884 238.269 208.365 243.269C189.519 252.981 171.923 264.904 153.077 274.711C147.404 277.596 142.115 281.25 136.73 284.615C132.596 287.211 128.557 287.404 124.519 284.711C121.057 282.308 119.711 278.942 120.192 274.808C120.673 270.961 123.076 268.461 126.249 266.538C135.672 260.865 233.365 201.731 235.961 200.288C237.404 199.519 239.807 199.231 241.25 199.808C248.557 202.788 255.865 206.058 262.98 209.423C268.846 212.211 275 213.173 281.154 211.731C292.404 209.134 299.038 201.634 301.153 190.384C302.98 180.961 298.173 170.288 289.423 164.808C283.654 161.154 277.596 157.884 271.73 154.423C269.134 152.884 266.538 151.346 263.654 149.711C270.481 144.134 277.692 144.038 285.096 146.25C306.442 152.596 327.788 158.846 349.135 165.384C352.788 166.538 356.731 166.538 360.384 165.481C363.173 164.615 366.058 163.942 368.942 163.173L382.211 159.134C386.442 157.788 388.654 153.077 386.827 149.038C385.288 145.673 381.634 143.942 378.076 145C370.48 147.115 362.692 149.327 357.692 150.481C355.769 150.961 353.75 150.865 351.827 150.288C331.442 144.327 311.058 138.365 290.769 132.115C278.269 128.269 266.346 128.654 255.673 136.731C250.961 140.288 244.423 139.808 239.615 136.346C229.134 128.654 217.596 128.269 205.384 132.019C185.096 138.269 164.711 144.231 144.326 150.192C141.923 150.865 139.038 150.961 136.538 150.481C131.346 149.519 119.808 147.019 109.327 144.615C105.577 143.75 101.826 145.865 100.48 149.423C98.9418 153.75 101.538 158.558 106.057 159.519L110.672 160.481C110.672 160.481 110.865 160.481 111.057 160.481C118.654 161.923 126.153 163.269 133.557 165C138.365 166.154 143.461 166.058 148.173 164.615C169.327 158.077 190.576 152.019 211.73 145.673C218.557 143.654 224.903 144.327 231.057 148.173C240.096 153.846 249.711 158.654 258.653 164.519C265.288 168.846 272.115 172.884 279.23 176.25C285.577 179.231 287.981 185.288 285.481 191.058C283.269 196.154 277.404 198.461 271.538 196.538C268.173 195.384 267.981 196.442 248.654 188.654C239.327 184.904 236.634 181.442 231.057 185.577C226.057 189.327 125.288 249.519 117.307 254.423C115.48 255.577 113.654 256.923 112.211 258.558C110.769 260.192 109.519 260.096 107.788 259.423C102.307 257.308 93.0764 253.75 86.0571 251.058C83.7494 250.192 81.6341 249.327 80.0956 248.75C79.9033 248.75 79.8074 248.558 79.7112 248.461L73.3648 245.865C69.7109 244.327 65.4805 246.25 64.1344 250C62.8844 253.558 64.5186 257.404 67.9802 258.846C80.0956 263.846 94.2302 270 102.307 272.981C104.038 273.654 105 274.231 105.192 276.538C106.154 294.423 120.769 305.096 138.557 300.481H138.75C141.442 315.673 151.634 324.423 167.211 324.038C167.788 332.884 171.346 340.288 178.942 345.192C186.442 350 194.423 350.481 202.884 347.404C203.173 348.365 203.461 349.038 203.557 349.711C206.923 366.923 227.115 375.192 242.307 366.538C248.653 362.884 254.904 359.134 261.346 355.673C262.5 355 264.327 355.192 265.384 355.865C279.134 364.423 293.75 361.154 302.5 347.404C302.788 347.019 303.077 346.634 303.269 346.346C321.346 351.25 330.192 348.077 338.942 333.365C347.019 336.442 355.096 336.346 362.692 331.634C370.288 326.923 374.134 319.808 374.904 310.673C384.231 310.865 392.019 307.692 397.5 300.096C402.98 292.5 403.749 284.134 400.384 275.096C404.423 272.692 417.404 265.096 428.942 258.269C432.211 256.346 433.557 252.211 431.923 248.654C430.096 244.519 425.096 242.981 421.25 245.288C414.231 249.423 404.327 255.384 401.153 257.211V257.404ZM232.596 354.711C228.077 357.019 222.404 355 219.711 350.769C217.115 346.731 217.788 340.192 221.826 337.5C229.23 332.596 237.019 328.365 244.423 323.942C247.884 330.288 251.057 336.154 254.423 342.308C247.019 346.538 239.999 350.865 232.692 354.615L232.596 354.711ZM285.481 344.615C280.385 347.5 274.231 345.769 270.961 340.384C267.5 334.615 264.134 328.846 260.961 322.884C260.096 321.25 259.711 319.231 259.134 317.404C259.615 312.596 262.692 308.461 267.115 307.211C271.73 305.865 276.538 307.596 279.134 311.923C282.788 317.884 286.25 323.846 289.519 330C292.5 335.481 290.577 341.634 285.481 344.615ZM315.481 334.231C310.192 333.654 308.654 332.404 307.115 329.904C300.385 319.134 294.038 308.077 288.076 296.923C285.48 292.019 287.885 286.058 292.692 283.365C297.308 280.769 303.557 281.827 306.346 286.538C312.884 297.308 319.231 308.173 325.096 319.231C328.75 326.154 323.269 334.134 315.576 334.134L315.481 334.231ZM352.403 320.481C346.826 322.115 342.308 318.75 338.846 312.692C319.231 278.461 339.711 314.327 318.269 277.404C314.423 270.769 315.384 263.942 321.057 260.769C327.019 257.404 332.692 260.769 337.211 267.788C360.192 304.134 357.499 302.788 358.269 304.134C358.557 304.615 358.749 305 358.942 305.481C360.48 309.134 360.481 313.461 358.077 316.634C356.634 318.461 354.711 319.808 352.403 320.481ZM376.923 295.961C374.903 296.346 370.192 294.038 368.557 291.634C364.23 285.288 360.48 278.558 357.019 271.731C354.519 266.923 356.827 261.058 361.442 258.365C366.057 255.673 372.211 256.634 375.192 261.154C379.423 267.692 383.461 274.423 386.827 281.442C390.096 288.365 384.615 295.961 377.019 295.961H376.923Z" fill="white"/>
</g>
<defs>
<filter id="filter0_d_66_26" x="61.4466" y="127.436" width="379.102" height="250.498" filterUnits="userSpaceOnUse" color-interpolation-filters="sRGB">
<feFlood flood-opacity="0" result="BackgroundImageFix"/>
<feColorMatrix in="SourceAlpha" type="matrix" values="0 0 0 0 0 0 0 0 0 0 0 0 0 0 0 0 0 0 127 0" result="hardAlpha"/>
<feOffset dx="2.83" dy="2.83"/>
<feGaussianBlur stdDeviation="2.55"/>
<feColorMatrix type="matrix" values="0 0 0 0 0 0 0 0 0 0 0 0 0 0 0 0 0 0 0.3 0"/>
<feBlend mode="normal" in2="BackgroundImageFix" result="effect1_dropShadow_66_26"/>
<feBlend mode="normal" in="SourceGraphic" in2="effect1_dropShadow_66_26" result="shape"/>
</filter>
<linearGradient id="paint0_linear_66_26" x1="37.0192" y1="462.981" x2="462.981" y2="37.0192" gradientUnits="userSpaceOnUse">
<stop offset="0.08" stop-color="#917AD5"/>
<stop offset="0.25" stop-color="#907ED7"/>
<stop offset="0.44" stop-color="#8D8CDC"/>
<stop offset="0.64" stop-color="#89A3E6"/>
<stop offset="0.85" stop-color="#83C3F4"/>
<stop offset="0.99" stop-color="#7FDDFF"/>
</linearGradient>
</defs>
</svg>
